<svg width="70" height="70" viewBox="0 0 70 70" fill="none" xmlns="http://www.w3.org/2000/svg">
<path d="M34.9998 45.2083C32.2924 45.2083 29.6958 44.1328 27.7814 42.2184C25.867 40.3039 24.7914 37.7074 24.7914 35C24.7914 32.2926 25.867 29.696 27.7814 27.7816C29.6958 25.8672 32.2924 24.7917 34.9998 24.7917C37.7072 24.7917 40.3037 25.8672 42.2182 27.7816C44.1326 29.696 45.2081 32.2926 45.2081 35C45.2081 37.7074 44.1326 40.3039 42.2182 42.2184C40.3037 44.1328 37.7072 45.2083 34.9998 45.2083ZM56.6706 37.8292C56.7873 36.8958 56.8748 35.9625 56.8748 35C56.8748 34.0375 56.7873 33.075 56.6706 32.0833L62.8248 27.3292C63.3789 26.8917 63.5248 26.1042 63.1748 25.4625L57.3414 15.3708C56.9914 14.7292 56.2039 14.4667 55.5623 14.7292L48.2998 17.6458C46.7831 16.5083 45.2081 15.5167 43.3706 14.7875L42.2914 7.05832C42.2322 6.71478 42.0533 6.40331 41.7863 6.17909C41.5194 5.95487 41.1817 5.83238 40.8331 5.83332H29.1664C28.4373 5.83332 27.8248 6.35832 27.7081 7.05832L26.6289 14.7875C24.7914 15.5167 23.2164 16.5083 21.6998 17.6458L14.4373 14.7292C13.7956 14.4667 13.0081 14.7292 12.6581 15.3708L6.82478 25.4625C6.44561 26.1042 6.62061 26.8917 7.17478 27.3292L13.3289 32.0833C13.2123 33.075 13.1248 34.0375 13.1248 35C13.1248 35.9625 13.2123 36.8958 13.3289 37.8292L7.17478 42.6708C6.62061 43.1083 6.44561 43.8958 6.82478 44.5375L12.6581 54.6292C13.0081 55.2708 13.7956 55.5042 14.4373 55.2708L21.6998 52.325C23.2164 53.4917 24.7914 54.4833 26.6289 55.2125L27.7081 62.9417C27.8248 63.6417 28.4373 64.1667 29.1664 64.1667H40.8331C41.5623 64.1667 42.1748 63.6417 42.2914 62.9417L43.3706 55.2125C45.2081 54.4542 46.7831 53.4917 48.2998 52.325L55.5623 55.2708C56.2039 55.5042 56.9914 55.2708 57.3414 54.6292L63.1748 44.5375C63.5248 43.8958 63.3789 43.1083 62.8248 42.6708L56.6706 37.8292Z" fill="#CD57FF"/>
</svg>
