<svg width="26" height="26" viewBox="0 0 26 26" fill="none" xmlns="http://www.w3.org/2000/svg">
<path fill-rule="evenodd" clip-rule="evenodd" d="M12.8511 8.17896L11.4753 6.72582C9.5071 4.64697 6.31598 4.64697 4.34775 6.72582C2.37953 8.80467 2.37953 12.1752 4.34775 14.254L9.26059 19.443C11.0745 21.3589 13.9295 21.5096 15.9052 19.8927L15.9288 19.8734L15.953 19.8552C16.178 19.6858 16.3934 19.4939 16.5967 19.2792L21.1994 14.4178C23.1677 12.3389 23.1677 8.96844 21.1994 6.88959C19.2312 4.81074 16.0401 4.81074 14.0719 6.88959L12.8511 8.17896ZM13.0123 5.7705L12.8511 5.94077L12.5349 5.60673C9.98147 2.90982 5.8416 2.90982 3.28821 5.60673C0.734821 8.30364 0.734821 12.6762 3.28821 15.3731L8.20105 20.5621C10.5553 23.0487 14.2583 23.2426 16.8229 21.1438C17.1151 20.9237 17.3941 20.6752 17.6562 20.3983L22.259 15.5369C24.8124 12.84 24.8124 8.46741 22.259 5.7705C19.7056 3.07359 15.5657 3.07359 13.0123 5.7705Z" fill="#9B9B9B"/>
</svg>
